<?xml version="1.0" standalone="no"?>
<!DOCTYPE svg PUBLIC "-//W3C//DTD SVG 20010904//EN"
 "http://www.w3.org/TR/2001/REC-SVG-20010904/DTD/svg10.dtd">
<svg version="1.0" xmlns="http://www.w3.org/2000/svg"
 width="500.000000pt" height="500.000000pt" viewBox="0 0 500.000000 500.000000"
 preserveAspectRatio="xMidYMid meet">

<g transform="translate(0.000000,500.000000) scale(0.100000,-0.100000)"
fill="#000000" stroke="none">
<path d="M2275 4230 c-257 -23 -525 -121 -750 -274 -113 -76 -331 -291 -411
-406 -176 -250 -281 -516 -325 -825 -27 -189 -10 -504 37 -690 128 -509 453
-929 891 -1148 312 -157 671 -203 1018 -132 230 48 487 174 677 332 626 521
817 1448 454 2198 -190 391 -494 682 -874 836 -222 91 -482 130 -717 109z
m266 -70 c499 -48 929 -329 1196 -778 157 -264 242 -582 243 -904 0 -355 -102
-695 -300 -993 -92 -139 -292 -341 -428 -434 -407 -276 -903 -335 -1367 -164
-418 155 -781 537 -939 991 -73 210 -99 366 -100 592 0 298 50 526 174 785
290 605 896 966 1521 905z"/>
<path d="M1917 3143 c-4 -3 -7 -336 -7 -739 0 -855 -8 -802 102 -727 260 179
1119 802 1124 817 3 10 0 24 -7 32 -8 7 -117 68 -244 134 -126 67 -386 205
-576 306 -322 171 -375 195 -392 177z m588 -359 c286 -151 523 -278 527 -282
5 -6 -549 -409 -984 -715 l-68 -48 0 660 c0 364 1 661 3 661 1 0 236 -124 522
-276z"/>
</g>
</svg>
